<svg xmlns="http://www.w3.org/2000/svg" viewBox="0 0 600 750" width="600" height="750" preserveAspectRatio="xMidYMid slice"><defs><linearGradient id="x10451bg" x1="0.15" y1="0" x2="0.9" y2="1"><stop offset="0" stop-color="hsl(234,8%,80%)"/><stop offset="1" stop-color="hsl(234,8%,44%)"/></linearGradient><radialGradient id="x10451key" cx="0.36" cy="0.28" r="0.55"><stop offset="0" stop-color="#ffffff" stop-opacity="0.55"/><stop offset="1" stop-color="#ffffff" stop-opacity="0"/></radialGradient><linearGradient id="x10451sk" x1="0.25" y1="0.1" x2="0.85" y2="1"><stop offset="0" stop-color="hsl(24,35%,66%)"/><stop offset="1" stop-color="hsl(20,28%,32%)"/></linearGradient><linearGradient id="x10451ha" x1="0.2" y1="0" x2="0.9" y2="1"><stop offset="0" stop-color="hsl(28,30%,17%)"/><stop offset="1" stop-color="#0d0d10"/></linearGradient><linearGradient id="x10451cl" x1="0.1" y1="0" x2="0.8" y2="1"><stop offset="0" stop-color="hsl(263,19%,22%)"/><stop offset="1" stop-color="#14161a"/></linearGradient><linearGradient id="x10451vg" x1="0" y1="0" x2="0" y2="1"><stop offset="0" stop-color="#000" stop-opacity="0.1"/><stop offset="0.45" stop-color="#000" stop-opacity="0"/><stop offset="1" stop-color="#000" stop-opacity="0.3"/></linearGradient><filter id="x10451soft" x="-20%" y="-20%" width="140%" height="140%"><feGaussianBlur stdDeviation="7"/></filter><filter id="x10451gr" x="0" y="0" width="100%" height="100%"><feTurbulence type="fractalNoise" baseFrequency="0.92" numOctaves="2" stitchTiles="stitch"/><feColorMatrix type="saturate" values="0"/></filter></defs><rect width="600" height="750" fill="url(#x10451bg)"/><rect width="600" height="750" fill="url(#x10451key)"/><path d="M21.1 750 C 57.1 570.0, 165.1 420.7, 297.1 416.3 C 429.1 420.7, 537.1 570.0, 573.1 750 Z" fill="url(#x10451cl)"/><path d="M259.4 363.0 h 75.5 v 68.8 h -75.5 Z" fill="hsl(20,26%,34%)"/><path d="M168.4 285.3 C 147.3 474.0, 197.2 540.6, 230.5 551.7 L 363.7 551.7 C 397.0 540.6, 447.0 474.0, 425.9 285.3 Z" fill="url(#x10451ha)"/><ellipse cx="297.1" cy="307.5" rx="88.8" ry="111.0" fill="url(#x10451sk)"/><path d="M203.9 298.6 C 192.8 183.2, 401.5 183.2, 390.4 298.6 C 363.7 234.2, 230.5 234.2, 203.9 298.6 Z" fill="url(#x10451ha)"/><ellipse cx="343.7" cy="318.6" rx="55.5" ry="95.5" fill="#000" opacity="0.16" filter="url(#x10451soft)"/><ellipse cx="223.9" cy="296.4" rx="17.8" ry="68.8" fill="#fff" opacity="0.14" filter="url(#x10451soft)"/><rect width="600" height="750" fill="url(#x10451vg)"/><rect width="600" height="750" filter="url(#x10451gr)" opacity="0.07" style="mix-blend-mode:overlay"/></svg>