<svg xmlns="http://www.w3.org/2000/svg" viewBox="0 0 600 750" width="600" height="750" preserveAspectRatio="xMidYMid slice"><defs><linearGradient id="x12782bg" x1="0.15" y1="0" x2="0.9" y2="1"><stop offset="0" stop-color="hsl(228,8%,82%)"/><stop offset="1" stop-color="hsl(228,8%,46%)"/></linearGradient><radialGradient id="x12782key" cx="0.36" cy="0.28" r="0.55"><stop offset="0" stop-color="#ffffff" stop-opacity="0.55"/><stop offset="1" stop-color="#ffffff" stop-opacity="0"/></radialGradient><linearGradient id="x12782sk" x1="0.25" y1="0.1" x2="0.85" y2="1"><stop offset="0" stop-color="hsl(31,41%,71%)"/><stop offset="1" stop-color="hsl(20,28%,37%)"/></linearGradient><linearGradient id="x12782ha" x1="0.2" y1="0" x2="0.9" y2="1"><stop offset="0" stop-color="hsl(34,37%,34%)"/><stop offset="1" stop-color="#0d0d10"/></linearGradient><linearGradient id="x12782cl" x1="0.1" y1="0" x2="0.8" y2="1"><stop offset="0" stop-color="hsl(201,7%,32%)"/><stop offset="1" stop-color="#14161a"/></linearGradient><linearGradient id="x12782vg" x1="0" y1="0" x2="0" y2="1"><stop offset="0" stop-color="#000" stop-opacity="0.1"/><stop offset="0.45" stop-color="#000" stop-opacity="0"/><stop offset="1" stop-color="#000" stop-opacity="0.3"/></linearGradient><filter id="x12782soft" x="-20%" y="-20%" width="140%" height="140%"><feGaussianBlur stdDeviation="7"/></filter><filter id="x12782gr" x="0" y="0" width="100%" height="100%"><feTurbulence type="fractalNoise" baseFrequency="0.92" numOctaves="2" stitchTiles="stitch"/><feColorMatrix type="saturate" values="0"/></filter></defs><rect width="600" height="750" fill="url(#x12782bg)"/><rect width="600" height="750" fill="url(#x12782key)"/><path d="M14.3 750 C 50.3 570.0, 158.3 420.7, 290.3 416.3 C 422.3 420.7, 530.3 570.0, 566.3 750 Z" fill="url(#x12782cl)"/><path d="M252.5 363.0 h 75.5 v 68.8 h -75.5 Z" fill="hsl(20,26%,39%)"/><ellipse cx="290.3" cy="307.5" rx="88.8" ry="111.0" fill="url(#x12782sk)"/><path d="M197.0 298.6 C 185.9 183.2, 394.6 183.2, 383.5 298.6 C 356.9 234.2, 223.7 234.2, 197.0 298.6 Z" fill="url(#x12782ha)"/><ellipse cx="336.9" cy="318.6" rx="55.5" ry="95.5" fill="#000" opacity="0.16" filter="url(#x12782soft)"/><ellipse cx="217.0" cy="296.4" rx="17.8" ry="68.8" fill="#fff" opacity="0.14" filter="url(#x12782soft)"/><rect width="600" height="750" fill="url(#x12782vg)"/><rect width="600" height="750" filter="url(#x12782gr)" opacity="0.07" style="mix-blend-mode:overlay"/></svg>