<svg xmlns="http://www.w3.org/2000/svg" viewBox="0 0 1920 1200" width="1920" height="1200" preserveAspectRatio="xMidYMid slice"><defs><linearGradient id="x8631bg" x1="0.2" y1="0" x2="0.8" y2="1"><stop offset="0" stop-color="#20252c"/><stop offset="0.55" stop-color="#0b0d11"/><stop offset="1" stop-color="#050609"/></linearGradient><radialGradient id="x8631sp" cx="0.55" cy="0.3" r="0.6"><stop offset="0" stop-color="#aab5c4" stop-opacity="0.42"/><stop offset="1" stop-color="#000" stop-opacity="0"/></radialGradient><linearGradient id="x8631flr" x1="0" y1="0" x2="0" y2="1"><stop offset="0" stop-color="#1b1f26"/><stop offset="1" stop-color="#050609"/></linearGradient><linearGradient id="x8631body" x1="0.1" y1="0" x2="0.5" y2="1"><stop offset="0" stop-color="#6d7887"/><stop offset="0.28" stop-color="#2d343e"/><stop offset="0.62" stop-color="#12151a"/><stop offset="1" stop-color="#07080b"/></linearGradient><linearGradient id="x8631cab" x1="0" y1="0" x2="0.6" y2="1"><stop offset="0" stop-color="#8fa0b3" stop-opacity="0.75"/><stop offset="0.6" stop-color="#2b323c"/><stop offset="1" stop-color="#0d1014"/></linearGradient><linearGradient id="x8631rim" x1="0" y1="0" x2="1" y2="0"><stop offset="0" stop-color="#fff" stop-opacity="0"/><stop offset="0.35" stop-color="#eef3f9" stop-opacity="0.9"/><stop offset="0.72" stop-color="#fff" stop-opacity="0.3"/><stop offset="1" stop-color="#fff" stop-opacity="0"/></linearGradient><radialGradient id="x8631rimg" cx="0.36" cy="0.32" r="0.8"><stop offset="0" stop-color="#c4ccd6"/><stop offset="0.6" stop-color="#5b636e"/><stop offset="1" stop-color="#20242b"/></radialGradient><filter id="x8631bl" x="-30%" y="-60%" width="160%" height="260%"><feGaussianBlur stdDeviation="24.0"/></filter><radialGradient id="x8631ed" cx="0.5" cy="0.5" r="0.74"><stop offset="0.5" stop-color="#000" stop-opacity="0"/><stop offset="1" stop-color="#000" stop-opacity="0.66"/></radialGradient><filter id="x8631gr" x="0" y="0" width="100%" height="100%"><feTurbulence type="fractalNoise" baseFrequency="0.92" numOctaves="2" stitchTiles="stitch"/><feColorMatrix type="saturate" values="0"/></filter></defs><rect width="1920" height="1200" fill="url(#x8631bg)"/><rect width="1920" height="1200" fill="url(#x8631sp)"/><rect x="0" y="936.0" width="1920" height="264.0" fill="url(#x8631flr)"/><ellipse cx="960.0" cy="950.4" rx="844.8" ry="42.0" fill="#000" opacity="0.6" filter="url(#x8631bl)"/><path d="M115.2 936.0 C 153.6 732.0, 268.8 636.0, 460.8 588.0 C 633.6 432.0, 844.8 372.0, 1056.0 396.0 C 1305.6 420.0, 1574.4 516.0, 1785.6 672.0 C 1862.4 732.0, 1862.4 912.0, 1804.8 936.0 Z" fill="url(#x8631body)"/><path d="M652.8 468.0 C 768.0 348.0, 1075.2 324.0, 1267.2 432.0 L 1190.4 516.0 L 729.6 528.0 Z" fill="url(#x8631cab)"/><path d="M192.0 696.0 C 652.8 552.0, 1190.4 528.0, 1766.4 684.0" fill="none" stroke="url(#x8631rim)" stroke-width="10.8"/><path d="M192.0 912.0 C 691.2 828.0, 1267.2 828.0, 1766.4 912.0 L 1766.4 936.0 L 192.0 936.0 Z" fill="#04050a" opacity="0.85"/><rect x="1651.2" y="600.0" width="172.8" height="16.8" rx="8.4" fill="#dfe8f2" opacity="0.95"/><circle cx="460.8" cy="776.0" r="186.0" fill="#08090c"/><circle cx="460.8" cy="776.0" r="122.8" fill="url(#x8631rimg)"/><circle cx="460.8" cy="776.0" r="40.9" fill="#1a1e24"/><line x1="505.4" y1="776.0" x2="576.1" y2="776.0" stroke="#39414c" stroke-width="13.0"/><line x1="499.5" y1="798.4" x2="560.7" y2="833.7" stroke="#39414c" stroke-width="13.0"/><line x1="483.1" y1="814.7" x2="518.5" y2="875.9" stroke="#39414c" stroke-width="13.0"/><line x1="460.8" y1="820.7" x2="460.8" y2="891.4" stroke="#39414c" stroke-width="13.0"/><line x1="438.5" y1="814.7" x2="403.1" y2="875.9" stroke="#39414c" stroke-width="13.0"/><line x1="422.1" y1="798.4" x2="360.9" y2="833.7" stroke="#39414c" stroke-width="13.0"/><line x1="416.2" y1="776.0" x2="345.5" y2="776.0" stroke="#39414c" stroke-width="13.0"/><line x1="422.1" y1="753.7" x2="360.9" y2="718.4" stroke="#39414c" stroke-width="13.0"/><line x1="438.5" y1="737.4" x2="403.1" y2="676.2" stroke="#39414c" stroke-width="13.0"/><line x1="460.8" y1="731.4" x2="460.8" y2="660.7" stroke="#39414c" stroke-width="13.0"/><line x1="483.1" y1="737.4" x2="518.5" y2="676.2" stroke="#39414c" stroke-width="13.0"/><line x1="499.5" y1="753.7" x2="560.7" y2="718.4" stroke="#39414c" stroke-width="13.0"/><path d="M252.5 768.6 a 208.3 208.3 0 0 1 416.6 0" fill="none" stroke="#04050a" stroke-width="24.0" opacity="0.75"/><circle cx="1440.0" cy="776.0" r="186.0" fill="#08090c"/><circle cx="1440.0" cy="776.0" r="122.8" fill="url(#x8631rimg)"/><circle cx="1440.0" cy="776.0" r="40.9" fill="#1a1e24"/><line x1="1484.6" y1="776.0" x2="1555.3" y2="776.0" stroke="#39414c" stroke-width="13.0"/><line x1="1478.7" y1="798.4" x2="1539.9" y2="833.7" stroke="#39414c" stroke-width="13.0"/><line x1="1462.3" y1="814.7" x2="1497.7" y2="875.9" stroke="#39414c" stroke-width="13.0"/><line x1="1440.0" y1="820.7" x2="1440.0" y2="891.4" stroke="#39414c" stroke-width="13.0"/><line x1="1417.7" y1="814.7" x2="1382.3" y2="875.9" stroke="#39414c" stroke-width="13.0"/><line x1="1401.3" y1="798.4" x2="1340.1" y2="833.7" stroke="#39414c" stroke-width="13.0"/><line x1="1395.4" y1="776.0" x2="1324.7" y2="776.0" stroke="#39414c" stroke-width="13.0"/><line x1="1401.3" y1="753.7" x2="1340.1" y2="718.4" stroke="#39414c" stroke-width="13.0"/><line x1="1417.7" y1="737.4" x2="1382.3" y2="676.2" stroke="#39414c" stroke-width="13.0"/><line x1="1440.0" y1="731.4" x2="1440.0" y2="660.7" stroke="#39414c" stroke-width="13.0"/><line x1="1462.3" y1="737.4" x2="1497.7" y2="676.2" stroke="#39414c" stroke-width="13.0"/><line x1="1478.7" y1="753.7" x2="1539.9" y2="718.4" stroke="#39414c" stroke-width="13.0"/><path d="M1231.7 768.6 a 208.3 208.3 0 0 1 416.6 0" fill="none" stroke="#04050a" stroke-width="24.0" opacity="0.75"/><rect width="1920" height="1200" fill="url(#x8631ed)"/><rect width="1920" height="1200" filter="url(#x8631gr)" opacity="0.08" style="mix-blend-mode:overlay"/></svg>