<svg xmlns="http://www.w3.org/2000/svg" viewBox="0 0 870 480" width="870" height="480" preserveAspectRatio="xMidYMid slice"><defs><linearGradient id="x9429bg" x1="0" y1="0" x2="0.4" y2="1"><stop offset="0" stop-color="#fdfdfe"/><stop offset="1" stop-color="#d8dce1"/></linearGradient><linearGradient id="x9429deck" x1="0" y1="0" x2="0.5" y2="1"><stop offset="0" stop-color="#f4f5f7"/><stop offset="0.5" stop-color="#dcdfe4"/><stop offset="1" stop-color="#b9bec6"/></linearGradient><linearGradient id="x9429key" x1="0" y1="0" x2="0.3" y2="1"><stop offset="0" stop-color="#ffffff"/><stop offset="1" stop-color="#c9ced6"/></linearGradient><radialGradient id="x9429dial" cx="0.35" cy="0.3" r="0.8"><stop offset="0" stop-color="#eef1f5"/><stop offset="0.55" stop-color="#98a1ad"/><stop offset="1" stop-color="#3a4048"/></radialGradient><filter id="x9429bl" x="-20%" y="-20%" width="140%" height="140%"><feGaussianBlur stdDeviation="9.6"/></filter><radialGradient id="x9429ed" cx="0.5" cy="0.5" r="0.74"><stop offset="0.5" stop-color="#000" stop-opacity="0"/><stop offset="1" stop-color="#000" stop-opacity="0.14"/></radialGradient><filter id="x9429gr" x="0" y="0" width="100%" height="100%"><feTurbulence type="fractalNoise" baseFrequency="0.92" numOctaves="2" stitchTiles="stitch"/><feColorMatrix type="saturate" values="0"/></filter></defs><rect width="870" height="480" fill="url(#x9429bg)"/><g transform="rotate(-9 435.0 254.4)"><rect x="34.8" y="120.0" width="800.4" height="297.6" rx="21.6" fill="#000" opacity="0.5" filter="url(#x9429bl)"/><rect x="34.8" y="105.6" width="800.4" height="297.6" rx="21.6" fill="url(#x9429deck)"/><rect x="70.8" y="148.0" width="68.8" height="47.6" rx="6.7" fill="#000" opacity="0.45"/><rect x="70.8" y="141.3" width="68.8" height="47.6" rx="6.7" fill="url(#x9429key)"/><rect x="77.7" y="146.1" width="55.1" height="14.3" rx="2.9" fill="#fff" opacity="0.5"/><rect x="151.7" y="148.0" width="68.8" height="47.6" rx="6.7" fill="#000" opacity="0.45"/><rect x="151.7" y="141.3" width="68.8" height="47.6" rx="6.7" fill="url(#x9429key)"/><rect x="158.5" y="146.1" width="55.1" height="14.3" rx="2.9" fill="#fff" opacity="0.5"/><rect x="232.5" y="148.0" width="68.8" height="47.6" rx="6.7" fill="#000" opacity="0.45"/><rect x="232.5" y="141.3" width="68.8" height="47.6" rx="6.7" fill="url(#x9429key)"/><rect x="239.4" y="146.1" width="55.1" height="14.3" rx="2.9" fill="#fff" opacity="0.5"/><rect x="313.3" y="148.0" width="68.8" height="47.6" rx="6.7" fill="#000" opacity="0.45"/><rect x="313.3" y="141.3" width="68.8" height="47.6" rx="6.7" fill="url(#x9429key)"/><rect x="320.2" y="146.1" width="55.1" height="14.3" rx="2.9" fill="#fff" opacity="0.5"/><rect x="394.2" y="148.0" width="68.8" height="47.6" rx="6.7" fill="#000" opacity="0.45"/><rect x="394.2" y="141.3" width="68.8" height="47.6" rx="6.7" fill="url(#x9429key)"/><rect x="401.1" y="146.1" width="55.1" height="14.3" rx="2.9" fill="#fff" opacity="0.5"/><rect x="475.0" y="148.0" width="68.8" height="47.6" rx="6.7" fill="#000" opacity="0.45"/><rect x="475.0" y="141.3" width="68.8" height="47.6" rx="6.7" fill="url(#x9429key)"/><rect x="481.9" y="146.1" width="55.1" height="14.3" rx="2.9" fill="#fff" opacity="0.5"/><rect x="555.9" y="148.0" width="68.8" height="47.6" rx="6.7" fill="#000" opacity="0.45"/><rect x="555.9" y="141.3" width="68.8" height="47.6" rx="6.7" fill="url(#x9429key)"/><rect x="562.7" y="146.1" width="55.1" height="14.3" rx="2.9" fill="#fff" opacity="0.5"/><rect x="636.7" y="148.0" width="68.8" height="47.6" rx="6.7" fill="#000" opacity="0.45"/><rect x="636.7" y="141.3" width="68.8" height="47.6" rx="6.7" fill="url(#x9429key)"/><rect x="643.6" y="146.1" width="55.1" height="14.3" rx="2.9" fill="#fff" opacity="0.5"/><rect x="717.5" y="148.0" width="68.8" height="47.6" rx="6.7" fill="#000" opacity="0.45"/><rect x="717.5" y="141.3" width="68.8" height="47.6" rx="6.7" fill="url(#x9429key)"/><rect x="724.4" y="146.1" width="55.1" height="14.3" rx="2.9" fill="#fff" opacity="0.5"/><rect x="70.8" y="209.0" width="68.8" height="47.6" rx="6.7" fill="#000" opacity="0.45"/><rect x="70.8" y="202.3" width="68.8" height="47.6" rx="6.7" fill="url(#x9429key)"/><rect x="77.7" y="207.1" width="55.1" height="14.3" rx="2.9" fill="#fff" opacity="0.5"/><rect x="151.7" y="209.0" width="68.8" height="47.6" rx="6.7" fill="#000" opacity="0.45"/><rect x="151.7" y="202.3" width="68.8" height="47.6" rx="6.7" fill="url(#x9429key)"/><rect x="158.5" y="207.1" width="55.1" height="14.3" rx="2.9" fill="#fff" opacity="0.5"/><rect x="232.5" y="209.0" width="68.8" height="47.6" rx="6.7" fill="#000" opacity="0.45"/><rect x="232.5" y="202.3" width="68.8" height="47.6" rx="6.7" fill="url(#x9429key)"/><rect x="239.4" y="207.1" width="55.1" height="14.3" rx="2.9" fill="#fff" opacity="0.5"/><rect x="313.3" y="209.0" width="68.8" height="47.6" rx="6.7" fill="#000" opacity="0.45"/><rect x="313.3" y="202.3" width="68.8" height="47.6" rx="6.7" fill="url(#x9429key)"/><rect x="320.2" y="207.1" width="55.1" height="14.3" rx="2.9" fill="#fff" opacity="0.5"/><rect x="394.2" y="209.0" width="68.8" height="47.6" rx="6.7" fill="#000" opacity="0.45"/><rect x="394.2" y="202.3" width="68.8" height="47.6" rx="6.7" fill="url(#x9429key)"/><rect x="401.1" y="207.1" width="55.1" height="14.3" rx="2.9" fill="#fff" opacity="0.5"/><rect x="475.0" y="209.0" width="68.8" height="47.6" rx="6.7" fill="#000" opacity="0.45"/><rect x="475.0" y="202.3" width="68.8" height="47.6" rx="6.7" fill="url(#x9429key)"/><rect x="481.9" y="207.1" width="55.1" height="14.3" rx="2.9" fill="#fff" opacity="0.5"/><rect x="555.9" y="209.0" width="68.8" height="47.6" rx="6.7" fill="#000" opacity="0.45"/><rect x="555.9" y="202.3" width="68.8" height="47.6" rx="6.7" fill="url(#x9429key)"/><rect x="562.7" y="207.1" width="55.1" height="14.3" rx="2.9" fill="#fff" opacity="0.5"/><rect x="636.7" y="209.0" width="68.8" height="47.6" rx="6.7" fill="#000" opacity="0.45"/><rect x="636.7" y="202.3" width="68.8" height="47.6" rx="6.7" fill="url(#x9429key)"/><rect x="643.6" y="207.1" width="55.1" height="14.3" rx="2.9" fill="#fff" opacity="0.5"/><rect x="717.5" y="209.0" width="68.8" height="47.6" rx="6.7" fill="#000" opacity="0.45"/><rect x="717.5" y="202.3" width="68.8" height="47.6" rx="6.7" fill="url(#x9429key)"/><rect x="724.4" y="207.1" width="55.1" height="14.3" rx="2.9" fill="#fff" opacity="0.5"/><rect x="70.8" y="270.0" width="68.8" height="47.6" rx="6.7" fill="#000" opacity="0.45"/><rect x="70.8" y="263.3" width="68.8" height="47.6" rx="6.7" fill="url(#x9429key)"/><rect x="77.7" y="268.1" width="55.1" height="14.3" rx="2.9" fill="#fff" opacity="0.5"/><rect x="151.7" y="270.0" width="68.8" height="47.6" rx="6.7" fill="#000" opacity="0.45"/><rect x="151.7" y="263.3" width="68.8" height="47.6" rx="6.7" fill="url(#x9429key)"/><rect x="158.5" y="268.1" width="55.1" height="14.3" rx="2.9" fill="#fff" opacity="0.5"/><rect x="232.5" y="270.0" width="68.8" height="47.6" rx="6.7" fill="#000" opacity="0.45"/><rect x="232.5" y="263.3" width="68.8" height="47.6" rx="6.7" fill="url(#x9429key)"/><rect x="239.4" y="268.1" width="55.1" height="14.3" rx="2.9" fill="#fff" opacity="0.5"/><rect x="313.3" y="270.0" width="68.8" height="47.6" rx="6.7" fill="#000" opacity="0.45"/><rect x="313.3" y="263.3" width="68.8" height="47.6" rx="6.7" fill="url(#x9429key)"/><rect x="320.2" y="268.1" width="55.1" height="14.3" rx="2.9" fill="#fff" opacity="0.5"/><rect x="394.2" y="270.0" width="68.8" height="47.6" rx="6.7" fill="#000" opacity="0.45"/><rect x="394.2" y="263.3" width="68.8" height="47.6" rx="6.7" fill="url(#x9429key)"/><rect x="401.1" y="268.1" width="55.1" height="14.3" rx="2.9" fill="#fff" opacity="0.5"/><rect x="475.0" y="270.0" width="68.8" height="47.6" rx="6.7" fill="#000" opacity="0.45"/><rect x="475.0" y="263.3" width="68.8" height="47.6" rx="6.7" fill="url(#x9429key)"/><rect x="481.9" y="268.1" width="55.1" height="14.3" rx="2.9" fill="#fff" opacity="0.5"/><rect x="555.9" y="270.0" width="68.8" height="47.6" rx="6.7" fill="#000" opacity="0.45"/><rect x="555.9" y="263.3" width="68.8" height="47.6" rx="6.7" fill="url(#x9429key)"/><rect x="562.7" y="268.1" width="55.1" height="14.3" rx="2.9" fill="#fff" opacity="0.5"/><rect x="636.7" y="270.0" width="68.8" height="47.6" rx="6.7" fill="#000" opacity="0.45"/><rect x="636.7" y="263.3" width="68.8" height="47.6" rx="6.7" fill="url(#x9429key)"/><rect x="643.6" y="268.1" width="55.1" height="14.3" rx="2.9" fill="#fff" opacity="0.5"/><rect x="717.5" y="270.0" width="68.8" height="47.6" rx="6.7" fill="#000" opacity="0.45"/><rect x="717.5" y="263.3" width="68.8" height="47.6" rx="6.7" fill="url(#x9429key)"/><rect x="724.4" y="268.1" width="55.1" height="14.3" rx="2.9" fill="#fff" opacity="0.5"/><rect x="70.8" y="331.0" width="68.8" height="47.6" rx="6.7" fill="#000" opacity="0.45"/><rect x="70.8" y="324.3" width="68.8" height="47.6" rx="6.7" fill="url(#x9429key)"/><rect x="77.7" y="329.1" width="55.1" height="14.3" rx="2.9" fill="#fff" opacity="0.5"/><rect x="151.7" y="331.0" width="68.8" height="47.6" rx="6.7" fill="#000" opacity="0.45"/><rect x="151.7" y="324.3" width="68.8" height="47.6" rx="6.7" fill="url(#x9429key)"/><rect x="158.5" y="329.1" width="55.1" height="14.3" rx="2.9" fill="#fff" opacity="0.5"/><rect x="232.5" y="331.0" width="68.8" height="47.6" rx="6.7" fill="#000" opacity="0.45"/><rect x="232.5" y="324.3" width="68.8" height="47.6" rx="6.7" fill="url(#x9429key)"/><rect x="239.4" y="329.1" width="55.1" height="14.3" rx="2.9" fill="#fff" opacity="0.5"/><rect x="313.3" y="331.0" width="68.8" height="47.6" rx="6.7" fill="#000" opacity="0.45"/><rect x="313.3" y="324.3" width="68.8" height="47.6" rx="6.7" fill="url(#x9429key)"/><rect x="320.2" y="329.1" width="55.1" height="14.3" rx="2.9" fill="#fff" opacity="0.5"/><rect x="394.2" y="331.0" width="68.8" height="47.6" rx="6.7" fill="#000" opacity="0.45"/><rect x="394.2" y="324.3" width="68.8" height="47.6" rx="6.7" fill="url(#x9429key)"/><rect x="401.1" y="329.1" width="55.1" height="14.3" rx="2.9" fill="#fff" opacity="0.5"/><rect x="475.0" y="331.0" width="68.8" height="47.6" rx="6.7" fill="#000" opacity="0.45"/><rect x="475.0" y="324.3" width="68.8" height="47.6" rx="6.7" fill="url(#x9429key)"/><rect x="481.9" y="329.1" width="55.1" height="14.3" rx="2.9" fill="#fff" opacity="0.5"/><rect x="555.9" y="331.0" width="68.8" height="47.6" rx="6.7" fill="#000" opacity="0.45"/><rect x="555.9" y="324.3" width="68.8" height="47.6" rx="6.7" fill="url(#x9429key)"/><rect x="562.7" y="329.1" width="55.1" height="14.3" rx="2.9" fill="#fff" opacity="0.5"/><rect x="636.7" y="331.0" width="68.8" height="47.6" rx="6.7" fill="#000" opacity="0.45"/><rect x="636.7" y="324.3" width="68.8" height="47.6" rx="6.7" fill="url(#x9429key)"/><rect x="643.6" y="329.1" width="55.1" height="14.3" rx="2.9" fill="#fff" opacity="0.5"/><rect x="717.5" y="331.0" width="68.8" height="47.6" rx="6.7" fill="#000" opacity="0.45"/><rect x="717.5" y="324.3" width="68.8" height="47.6" rx="6.7" fill="url(#x9429key)"/><rect x="724.4" y="329.1" width="55.1" height="14.3" rx="2.9" fill="#fff" opacity="0.5"/><circle cx="755.2" cy="200.6" r="48.0" fill="#000" opacity="0.5"/><circle cx="755.2" cy="194.9" r="48.0" fill="url(#x9429dial)"/><circle cx="755.2" cy="194.9" r="48.0" fill="none" stroke="#fff" stroke-opacity="0.28"/><line x1="796.4" y1="194.9" x2="802.2" y2="194.9" stroke="#8e97a3" stroke-opacity="0.6"/><line x1="795.9" y1="201.3" x2="801.6" y2="202.2" stroke="#8e97a3" stroke-opacity="0.6"/><line x1="794.4" y1="207.6" x2="799.9" y2="209.4" stroke="#8e97a3" stroke-opacity="0.6"/><line x1="791.9" y1="213.6" x2="797.1" y2="216.2" stroke="#8e97a3" stroke-opacity="0.6"/><line x1="788.6" y1="219.1" x2="793.2" y2="222.5" stroke="#8e97a3" stroke-opacity="0.6"/><line x1="784.3" y1="224.1" x2="788.4" y2="228.1" stroke="#8e97a3" stroke-opacity="0.6"/><line x1="779.4" y1="228.3" x2="782.8" y2="232.9" stroke="#8e97a3" stroke-opacity="0.6"/><line x1="773.9" y1="231.7" x2="776.5" y2="236.8" stroke="#8e97a3" stroke-opacity="0.6"/><line x1="767.9" y1="234.1" x2="769.7" y2="239.6" stroke="#8e97a3" stroke-opacity="0.6"/><line x1="761.6" y1="235.7" x2="762.5" y2="241.3" stroke="#8e97a3" stroke-opacity="0.6"/><line x1="755.2" y1="236.2" x2="755.2" y2="241.9" stroke="#8e97a3" stroke-opacity="0.6"/><line x1="748.7" y1="235.7" x2="747.8" y2="241.3" stroke="#8e97a3" stroke-opacity="0.6"/><line x1="742.4" y1="234.1" x2="740.6" y2="239.6" stroke="#8e97a3" stroke-opacity="0.6"/><line x1="736.4" y1="231.7" x2="733.8" y2="236.8" stroke="#8e97a3" stroke-opacity="0.6"/><line x1="730.9" y1="228.3" x2="727.5" y2="232.9" stroke="#8e97a3" stroke-opacity="0.6"/><line x1="726.0" y1="224.1" x2="721.9" y2="228.1" stroke="#8e97a3" stroke-opacity="0.6"/><line x1="721.8" y1="219.1" x2="717.1" y2="222.5" stroke="#8e97a3" stroke-opacity="0.6"/><line x1="718.4" y1="213.6" x2="713.2" y2="216.2" stroke="#8e97a3" stroke-opacity="0.6"/><line x1="715.9" y1="207.6" x2="710.4" y2="209.4" stroke="#8e97a3" stroke-opacity="0.6"/><line x1="714.4" y1="201.3" x2="708.7" y2="202.2" stroke="#8e97a3" stroke-opacity="0.6"/><line x1="713.9" y1="194.9" x2="708.1" y2="194.9" stroke="#8e97a3" stroke-opacity="0.6"/><line x1="714.4" y1="188.4" x2="708.7" y2="187.5" stroke="#8e97a3" stroke-opacity="0.6"/><line x1="715.9" y1="182.1" x2="710.4" y2="180.3" stroke="#8e97a3" stroke-opacity="0.6"/><line x1="718.4" y1="176.1" x2="713.2" y2="173.5" stroke="#8e97a3" stroke-opacity="0.6"/><line x1="721.8" y1="170.6" x2="717.1" y2="167.2" stroke="#8e97a3" stroke-opacity="0.6"/><line x1="726.0" y1="165.7" x2="721.9" y2="161.6" stroke="#8e97a3" stroke-opacity="0.6"/><line x1="730.9" y1="161.5" x2="727.5" y2="156.8" stroke="#8e97a3" stroke-opacity="0.6"/><line x1="736.4" y1="158.1" x2="733.8" y2="153.0" stroke="#8e97a3" stroke-opacity="0.6"/><line x1="742.4" y1="155.6" x2="740.6" y2="150.1" stroke="#8e97a3" stroke-opacity="0.6"/><line x1="748.7" y1="154.1" x2="747.8" y2="148.4" stroke="#8e97a3" stroke-opacity="0.6"/><line x1="755.2" y1="153.6" x2="755.2" y2="147.8" stroke="#8e97a3" stroke-opacity="0.6"/><line x1="761.6" y1="154.1" x2="762.5" y2="148.4" stroke="#8e97a3" stroke-opacity="0.6"/><line x1="767.9" y1="155.6" x2="769.7" y2="150.1" stroke="#8e97a3" stroke-opacity="0.6"/><line x1="773.9" y1="158.1" x2="776.5" y2="153.0" stroke="#8e97a3" stroke-opacity="0.6"/><line x1="779.4" y1="161.5" x2="782.8" y2="156.8" stroke="#8e97a3" stroke-opacity="0.6"/><line x1="784.3" y1="165.7" x2="788.4" y2="161.6" stroke="#8e97a3" stroke-opacity="0.6"/><line x1="788.6" y1="170.6" x2="793.2" y2="167.2" stroke="#8e97a3" stroke-opacity="0.6"/><line x1="791.9" y1="176.1" x2="797.1" y2="173.5" stroke="#8e97a3" stroke-opacity="0.6"/><line x1="794.4" y1="182.1" x2="799.9" y2="180.3" stroke="#8e97a3" stroke-opacity="0.6"/><line x1="795.9" y1="188.4" x2="801.6" y2="187.5" stroke="#8e97a3" stroke-opacity="0.6"/><circle cx="531.0" cy="123.5" r="8.2" fill="#ff6041"/></g><rect width="870" height="480" fill="url(#x9429ed)"/><rect width="870" height="480" filter="url(#x9429gr)" opacity="0.07" style="mix-blend-mode:overlay"/></svg>