<svg xmlns="http://www.w3.org/2000/svg" viewBox="0 0 1600 1000" width="1600" height="1000" preserveAspectRatio="xMidYMid slice"><defs><linearGradient id="x5642bg" x1="0" y1="0" x2="0.3" y2="1"><stop offset="0" stop-color="#f2eee7"/><stop offset="1" stop-color="#cbc5bb"/></linearGradient><linearGradient id="x5642win" x1="0" y1="0" x2="0" y2="1"><stop offset="0" stop-color="#ffffff" stop-opacity="0.98"/><stop offset="1" stop-color="#ffffff" stop-opacity="0.2"/></linearGradient><linearGradient id="x5642desk" x1="0" y1="0" x2="0" y2="1"><stop offset="0" stop-color="#bfb3a1"/><stop offset="1" stop-color="#7d7365"/></linearGradient><linearGradient id="x5642scr" x1="0" y1="0" x2="1" y2="1"><stop offset="0" stop-color="#4a5a6b"/><stop offset="1" stop-color="#2a323d"/></linearGradient><radialGradient id="x5642ed" cx="0.5" cy="0.5" r="0.74"><stop offset="0.5" stop-color="#000" stop-opacity="0"/><stop offset="1" stop-color="#000" stop-opacity="0.2"/></radialGradient><filter id="x5642gr" x="0" y="0" width="100%" height="100%"><feTurbulence type="fractalNoise" baseFrequency="0.92" numOctaves="2" stitchTiles="stitch"/><feColorMatrix type="saturate" values="0"/></filter></defs><rect width="1600" height="1000" fill="url(#x5642bg)"/><rect x="832.0" y="0" width="768.0" height="680.0" fill="url(#x5642win)"/><line x1="1024.0" y1="0" x2="1024.0" y2="680.0" stroke="#9a958c" stroke-opacity="0.3" stroke-width="6.4"/><line x1="1216.0" y1="0" x2="1216.0" y2="680.0" stroke="#9a958c" stroke-opacity="0.3" stroke-width="6.4"/><line x1="1408.0" y1="0" x2="1408.0" y2="680.0" stroke="#9a958c" stroke-opacity="0.3" stroke-width="6.4"/><rect x="0" y="680.0" width="1600" height="320.0" fill="url(#x5642desk)"/><rect x="0" y="680.0" width="1600" height="12.0" fill="#d8cdbc"/><path d="M225.6 680.0 C 247.2 480.0, 520.8 480.0, 542.4 680.0 Z" fill="#3c434b"/><circle cx="384.0" cy="390.0" r="72.0" fill="#a87a58"/><path d="M312.0 380.0 a 72.0 72.0 0 0 1 144.0 0 z" fill="#241d18"/><path d="M513.6 680.0 C 535.2 480.0, 808.8 480.0, 830.4 680.0 Z" fill="#5f6a74"/><circle cx="672.0" cy="390.0" r="72.0" fill="#c69b78"/><path d="M600.0 380.0 a 72.0 72.0 0 0 1 144.0 0 z" fill="#3a3128"/><rect x="928.0" y="400.0" width="416.0" height="170.0" rx="8.0" fill="#14171c"/><rect x="947.2" y="412.0" width="377.6" height="146.0" fill="url(#x5642scr)"/><rect x="1120.0" y="570.0" width="32.0" height="90.0" fill="#1b1f25"/><rect x="1064.0" y="658.0" width="144.0" height="14.0" rx="3" fill="#22272e"/><path d="M320.0 675.0 l 224.0 0 l 32.0 -100.0 l -208.0 0 Z" fill="#2b3138"/><circle cx="704.0" cy="725.0" r="28.0" fill="#e8e2d6"/><circle cx="96.0" cy="730.0" r="35.0" fill="#ff6041" opacity="0.9"/><rect width="1600" height="1000" fill="url(#x5642ed)"/><rect width="1600" height="1000" filter="url(#x5642gr)" opacity="0.06" style="mix-blend-mode:overlay"/></svg>