<svg xmlns="http://www.w3.org/2000/svg" viewBox="0 0 1400 1000" width="1400" height="1000" preserveAspectRatio="xMidYMid slice"><defs><linearGradient id="x1498bg" x1="0.1" y1="0" x2="0.9" y2="1"><stop offset="0" stop-color="#2c2722"/><stop offset="0.5" stop-color="#16130f"/><stop offset="1" stop-color="#070606"/></linearGradient><radialGradient id="x1498ed" cx="0.5" cy="0.5" r="0.74"><stop offset="0.5" stop-color="#000" stop-opacity="0"/><stop offset="1" stop-color="#000" stop-opacity="0.6"/></radialGradient><filter id="x1498gr" x="0" y="0" width="100%" height="100%"><feTurbulence type="fractalNoise" baseFrequency="0.92" numOctaves="2" stitchTiles="stitch"/><feColorMatrix type="saturate" values="0"/></filter></defs><rect width="1400" height="1000" fill="url(#x1498bg)"/><path d="M0 20.0 C 392.0 43.2, 1008.0 -11.9, 1400 28.0" fill="none" stroke="#ffffff" stroke-opacity="0.1" stroke-width="24.3"/><path d="M0 98.0 C 392.0 134.2, 1008.0 62.3, 1400 106.0" fill="none" stroke="#ffffff" stroke-opacity="0.1" stroke-width="15.3"/><path d="M0 176.0 C 392.0 225.3, 1008.0 149.9, 1400 184.0" fill="none" stroke="#ffffff" stroke-opacity="0.1" stroke-width="31.8"/><path d="M0 254.0 C 392.0 316.6, 1008.0 196.0, 1400 262.0" fill="none" stroke="#ffffff" stroke-opacity="0.0" stroke-width="20.9"/><path d="M0 332.0 C 392.0 358.7, 1008.0 307.8, 1400 340.0" fill="none" stroke="#ffffff" stroke-opacity="0.1" stroke-width="26.9"/><path d="M0 410.0 C 392.0 425.1, 1008.0 376.2, 1400 418.0" fill="none" stroke="#ffffff" stroke-opacity="0.1" stroke-width="14.8"/><path d="M0 488.0 C 392.0 507.5, 1008.0 429.8, 1400 496.0" fill="none" stroke="#ffffff" stroke-opacity="0.1" stroke-width="30.6"/><path d="M0 566.0 C 392.0 596.4, 1008.0 510.8, 1400 574.0" fill="none" stroke="#ffffff" stroke-opacity="0.1" stroke-width="25.2"/><path d="M0 644.0 C 392.0 706.5, 1008.0 589.9, 1400 652.0" fill="none" stroke="#ffffff" stroke-opacity="0.0" stroke-width="25.9"/><path d="M0 722.0 C 392.0 768.4, 1008.0 659.0, 1400 730.0" fill="none" stroke="#ffffff" stroke-opacity="0.1" stroke-width="20.7"/><path d="M0 800.0 C 392.0 831.5, 1008.0 738.7, 1400 808.0" fill="none" stroke="#ffffff" stroke-opacity="0.1" stroke-width="29.2"/><path d="M0 878.0 C 392.0 910.7, 1008.0 840.3, 1400 886.0" fill="none" stroke="#ffffff" stroke-opacity="0.1" stroke-width="12.5"/><path d="M0 956.0 C 392.0 1010.2, 1008.0 896.8, 1400 964.0" fill="none" stroke="#ffffff" stroke-opacity="0.1" stroke-width="31.1"/><rect x="420.0" y="300.0" width="560.0" height="420.0" rx="20.0" fill="#0c0e12" opacity="0.6"/><rect x="504.0" y="370.0" width="392.0" height="12.0" rx="2" fill="#ff6041"/><rect x="504.0" y="420.0" width="224.0" height="10.0" rx="2" fill="#7d848f" opacity="0.7"/><rect x="588.0" y="550.0" width="224.0" height="100.0" rx="12.0" fill="#e9e4da" opacity="0.14"/><rect x="420.0" y="300.0" width="11.2" height="6.0" fill="#fff" opacity="0.18"/><rect x="446.6" y="300.0" width="11.2" height="6.0" fill="#fff" opacity="0.18"/><rect x="473.2" y="300.0" width="11.2" height="6.0" fill="#fff" opacity="0.18"/><rect x="499.8" y="300.0" width="11.2" height="6.0" fill="#fff" opacity="0.18"/><rect x="526.4" y="300.0" width="11.2" height="6.0" fill="#fff" opacity="0.18"/><rect x="553.0" y="300.0" width="11.2" height="6.0" fill="#fff" opacity="0.18"/><rect x="579.6" y="300.0" width="11.2" height="6.0" fill="#fff" opacity="0.18"/><rect x="606.2" y="300.0" width="11.2" height="6.0" fill="#fff" opacity="0.18"/><rect x="632.8" y="300.0" width="11.2" height="6.0" fill="#fff" opacity="0.18"/><rect x="659.4" y="300.0" width="11.2" height="6.0" fill="#fff" opacity="0.18"/><rect x="686.0" y="300.0" width="11.2" height="6.0" fill="#fff" opacity="0.18"/><rect x="712.6" y="300.0" width="11.2" height="6.0" fill="#fff" opacity="0.18"/><rect x="739.2" y="300.0" width="11.2" height="6.0" fill="#fff" opacity="0.18"/><rect x="765.8" y="300.0" width="11.2" height="6.0" fill="#fff" opacity="0.18"/><rect x="792.4" y="300.0" width="11.2" height="6.0" fill="#fff" opacity="0.18"/><rect x="819.0" y="300.0" width="11.2" height="6.0" fill="#fff" opacity="0.18"/><rect x="845.6" y="300.0" width="11.2" height="6.0" fill="#fff" opacity="0.18"/><rect x="872.2" y="300.0" width="11.2" height="6.0" fill="#fff" opacity="0.18"/><rect x="898.8" y="300.0" width="11.2" height="6.0" fill="#fff" opacity="0.18"/><rect x="925.4" y="300.0" width="11.2" height="6.0" fill="#fff" opacity="0.18"/><rect x="952.0" y="300.0" width="11.2" height="6.0" fill="#fff" opacity="0.18"/><rect x="978.6" y="300.0" width="11.2" height="6.0" fill="#fff" opacity="0.18"/><rect width="1400" height="1000" fill="url(#x1498ed)"/><rect width="1400" height="1000" filter="url(#x1498gr)" opacity="0.08" style="mix-blend-mode:overlay"/></svg>